<!-- Generated by IcoMoon.io -->
<svg version="1.1" xmlns="http://www.w3.org/2000/svg" width="55" height="32" viewBox="0 0 55 32">
<title>vk-icon</title>
<path fill="#fff" d="M48.828 22.303c0 0 4.435 4.38 5.532 6.407 0.021 0.029 0.038 0.061 0.049 0.096 0.447 0.749 0.557 1.336 0.337 1.769-0.37 0.716-1.624 1.075-2.049 1.105h-7.839c-0.546 0-1.681-0.143-3.064-1.097-1.056-0.738-2.106-1.953-3.124-3.141-1.52-1.764-2.833-3.294-4.164-3.294-0.168-0-0.335 0.027-0.494 0.082-1.007 0.318-2.285 1.753-2.285 5.573 0 1.196-0.944 1.876-1.605 1.876h-3.59c-1.223 0-7.592-0.428-13.24-6.383-6.92-7.291-13.136-21.916-13.196-22.044-0.387-0.946 0.425-1.462 1.303-1.462h7.916c1.062 0 1.407 0.642 1.648 1.218 0.28 0.661 1.317 3.305 3.017 6.276 2.754 4.833 4.446 6.8 5.798 6.8 0.254 0.001 0.504-0.066 0.724-0.192 1.766-0.971 1.437-7.28 1.355-8.58 0-0.252-0.003-2.817-0.908-4.057-0.647-0.889-1.75-1.234-2.416-1.36 0.178-0.258 0.557-0.653 1.042-0.886 1.21-0.603 3.396-0.691 5.565-0.691h1.204c2.353 0.033 2.962 0.184 3.818 0.4 1.723 0.411 1.755 1.528 1.605 5.329-0.044 1.086-0.090 2.309-0.090 3.749 0 0.307-0.014 0.65-0.014 0.998-0.052 1.95-0.121 4.147 1.256 5.050 0.178 0.111 0.385 0.17 0.595 0.17 0.477 0 1.906 0 5.782-6.651 1.701-2.938 3.017-6.402 3.108-6.662 0.077-0.145 0.307-0.554 0.587-0.719 0.199-0.106 0.422-0.159 0.647-0.154h9.312c1.015 0 1.703 0.154 1.838 0.538 0.225 0.623-0.044 2.523-4.295 8.272-0.716 0.957-1.344 1.786-1.895 2.51-3.854 5.058-3.854 5.313 0.228 9.153z"></path>
</svg>
