<!-- Generated by IcoMoon.io -->
<svg version="1.1" xmlns="http://www.w3.org/2000/svg" width="48" height="32" viewBox="0 0 48 32">
<title>youtube-icon</title>
<path fill="#fff" d="M45.791 5.048c-0.259-0.962-0.766-1.839-1.47-2.543s-1.581-1.211-2.543-1.47c-3.543-0.959-17.778-0.959-17.778-0.959s-14.235 0-17.777 0.959c-0.962 0.259-1.839 0.766-2.543 1.47s-1.211 1.581-1.47 2.543c-0.661 3.613-0.982 7.28-0.959 10.953-0.024 3.673 0.297 7.34 0.959 10.952 0.259 0.962 0.766 1.839 1.47 2.543s1.581 1.212 2.543 1.47c3.543 0.959 17.777 0.959 17.777 0.959s14.235 0 17.778-0.959c0.962-0.259 1.839-0.766 2.543-1.47s1.212-1.581 1.47-2.543c0.662-3.613 0.983-7.28 0.959-10.952 0.024-3.673-0.297-7.34-0.959-10.953zM19.45 22.825v-13.65l11.814 6.825-11.814 6.825z"></path>
</svg>
