<svg aria-hidden="true" style="position:absolute;width:0;height:0;overflow:hidden" xmlns="http://www.w3.org/2000/svg"><defs>
    
    <symbol id="youtube-icon" viewBox="0 0 48 32"><path fill="var(--color-current)"  d="M45.791 5.048c-.259-.962-.766-1.839-1.47-2.543s-1.581-1.211-2.543-1.47C38.235.076 24 .076 24 .076s-14.235 0-17.777.959c-.962.259-1.839.766-2.543 1.47S2.469 4.086 2.21 5.048c-.661 3.613-.982 7.28-.959 10.953-.024 3.673.297 7.34.959 10.952.259.962.766 1.839 1.47 2.543s1.581 1.212 2.543 1.47c3.543.959 17.777.959 17.777.959s14.235 0 17.778-.959c.962-.259 1.839-.766 2.543-1.47s1.212-1.581 1.47-2.543c.662-3.613.983-7.28.959-10.952.024-3.673-.297-7.34-.959-10.953zM19.45 22.825V9.175L31.264 16 19.45 22.825z"/></symbol>
    
    <symbol id="fb-icon" viewBox="0 0 32 32"><path fill="var(--color-current)"  d="M17.863 27.996V17.068h3.687l.548-4.279h-4.235v-2.725c0-1.235.344-2.08 2.116-2.08h2.245V4.169c-1.092-.117-2.191-.174-3.289-.169-3.259 0-5.496 1.989-5.496 5.641v3.14H9.776v4.279h3.671v10.936h4.416z"/></symbol>
    
    <symbol id="vk-icon" viewBox="0 0 55 32"><path fill="var(--color-current)"  d="M48.828 22.303s4.435 4.38 5.532 6.407c.021.029.038.061.049.096.447.749.557 1.336.337 1.769-.37.716-1.624 1.075-2.049 1.105h-7.839c-.546 0-1.681-.143-3.064-1.097-1.056-.738-2.106-1.953-3.124-3.141-1.52-1.764-2.833-3.294-4.164-3.294-.168 0-.335.027-.494.082-1.007.318-2.285 1.753-2.285 5.573 0 1.196-.944 1.876-1.605 1.876h-3.59c-1.223 0-7.592-.428-13.24-6.383C6.372 18.005.156 3.38.096 3.252-.291 2.306.521 1.79 1.399 1.79h7.916c1.062 0 1.407.642 1.648 1.218.28.661 1.317 3.305 3.017 6.276 2.754 4.833 4.446 6.8 5.798 6.8.254.001.504-.066.724-.192 1.766-.971 1.437-7.28 1.355-8.58 0-.252-.003-2.817-.908-4.057-.647-.889-1.75-1.234-2.416-1.36.178-.258.557-.653 1.042-.886 1.21-.603 3.396-.691 5.565-.691h1.204c2.353.033 2.962.184 3.818.4 1.723.411 1.755 1.528 1.605 5.329-.044 1.086-.09 2.309-.09 3.749 0 .307-.014.65-.014.998-.052 1.95-.121 4.147 1.256 5.05.178.111.385.17.595.17.477 0 1.906 0 5.782-6.651 1.701-2.938 3.017-6.402 3.108-6.662.077-.145.307-.554.587-.719.199-.106.422-.159.647-.154h9.312c1.015 0 1.703.154 1.838.538.225.623-.044 2.523-4.295 8.272-.716.957-1.344 1.786-1.895 2.51-3.854 5.058-3.854 5.313.228 9.153z"/></symbol>
    </defs></svg>